# xmcd
#
# Track frame offsets:
#	150
#	12380
#	23712
#	37300
#	49950
#	63587
#	76220
#	89650
#	100227
#	114927
#	125000
#	138452
#	148005
#	157630
#	169057
#	181220
#	193412
#	205327
#	216032
#	227857
#	245260
#	257005
#	271365
#	294687
#	305320
#	318237
#
# Disc length: 4442 seconds
# Revision: 0
# Processed by: cddbd v1.5.2PL0 Copyright (c) Steve Scherf et al.
# Submitted via: dBpowerAMP V12.0
#
DISCID=7f11581a
DTITLE=B. B. King - King of the Blues [Disc 1]
DYEAR=1992
DGENRE=Blues
TTITLE0=Miss Martha King (Previously Unissued On U.S. LP)
TTITLE1=She's Dynamite
TTITLE2=Three O'Clock Blues
TTITLE3=Please Love Me
TTITLE4=You Upset Me Baby
TTITLE5=Everyday I Have The Blues
TTITLE6=Rock Me Baby
TTITLE7=Recession Blues
TTITLE8=Don't Get Around Much Anymore
TTITLE9=I'm Gonna Sit In 'Til You Give In
TTITLE10=Blues At Midnight
TTITLE11=Sneakin' Around
TTITLE12=My Baby's Comin' Home
TTITLE13=Slowly Losing My Mind (Previously Unissued On LP)
TTITLE14=How Blue Can You Get (Previously Unissued On LP)
TTITLE15=Rockin' Awhile (Previously Unissued)
TTITLE16=Help The Poor (Previously Unissued On LP)
TTITLE17=Stop Leadin' Me On (Previously Unissued On LP)
TTITLE18=Never Trust A Woman (Previously Unissued On LP)
TTITLE19=Sweet Little Angel (Live 'Regal Theatre')
TTITLE20=All Over Again
TTITLE21=Sloppy Drunk (Previously Unissued)
TTITLE22=Don't Answer The Door - Parts 1 and 2
TTITLE23=I Done Got Wise
TTITLE24=Think It Over
TTITLE25=Gambler's Blues (Live)
EXTD=
EXTT0=
EXTT1=
EXTT2=
EXTT3=
EXTT4=
EXTT5=
EXTT6=
EXTT7=
EXTT8=
EXTT9=
EXTT10=
EXTT11=
EXTT12=
EXTT13=
EXTT14=
EXTT15=
EXTT16=
EXTT17=
EXTT18=
EXTT19=
EXTT20=
EXTT21=
EXTT22=
EXTT23=
EXTT24=
EXTT25=
PLAYORDER=
